<svg width="512" height="512" xmlns="http://www.w3.org/2000/svg" fill="#000000" version="1.1" enable-background="new 0 0 512 512">
 <g>
  <title>Layer 1</title>
  <g stroke-linejoin=" miter" stroke-linecap=" butt" stroke-dasharray=" none" stroke=" none" fill=" rgb(255,69,0)" id="svg_2">
   <g id="svg_3">
    <path d="m255.95059,501.03749c-4,0 -8,-1.2 -11.4,-3.5c-147.3,-99.1 -232.4,-247.2 -233.6,-406.4c-0.1,-9.3 6.2,-17.5 15.2,-19.9l224.6,-59.6c3.4,-0.9 7,-0.9 10.5,0l224.6,59.6c9,2.4 15.2,10.6 15.2,19.9c-1.1,159.1 -86.3,307.3 -233.6,406.4c-3.5,2.3 -7.5,3.5 -11.5,3.5zm-203.7,-394.4c6.2,135.4 79.6,261.3 203.7,349.2c124.1,-87.9 197.5,-213.8 203.7,-349.2l-203.7,-54.1l-203.7,54.1z" id="svg_4"/>
   </g>
  </g>
  <g id="svg_5">
   <g id="svg_6" transform="translate(1.40659 1.40659) scale(2.81 2.81)" stroke=" none" stroke-width="0" stroke-dasharray=" none" stroke-linecap=" butt" stroke-linejoin=" miter" stroke-miterlimit="10" fill=" none" fill-rule=" nonzero">
    <circle id="svg_7" cx="90.60264" cy="77.07951" r="45" stroke=" none" stroke-dasharray=" none" stroke-linecap=" butt" stroke-linejoin=" miter" stroke-miterlimit="10" fill=" rgb(255,69,0)" fill-rule=" nonzero"/>
    <path id="svg_8" d="m120.61364,77.07951c-0.134,-3.624 -3.177,-6.454 -6.812,-6.331c-1.611,0.056 -3.143,0.716 -4.306,1.823c-5.123,-3.49 -11.141,-5.403 -17.327,-5.537l2.919,-14.038l9.631,2.025c0.268,2.472 2.483,4.262 4.955,3.993c2.472,-0.268 4.262,-2.483 3.993,-4.955s-2.483,-4.262 -4.955,-3.993c-1.421,0.145 -2.696,0.973 -3.4,2.204l-11.029,-2.204c-0.749,-0.168 -1.499,0.302 -1.667,1.063c0,0.011 0,0.011 0,0.022l-3.322,15.615c-6.264,0.101 -12.36,2.025 -17.55,5.537c-2.64,-2.483 -6.801,-2.36 -9.284,0.291c-2.483,2.64 -2.36,6.801 0.291,9.284c0.515,0.481 1.107,0.895 1.767,1.186c-0.045,0.66 -0.045,1.32 0,1.98c0,10.078 11.745,18.277 26.23,18.277c14.485,0 26.23,-8.188 26.23,-18.277c0.045,-0.66 0.045,-1.32 0,-1.98c2.26,-1.13 3.681,-3.457 3.636,-5.985zm-45,4.508c0,-2.483 2.025,-4.508 4.508,-4.508c2.483,0 4.508,2.025 4.508,4.508s-2.025,4.508 -4.508,4.508c-2.494,-0.023 -4.508,-2.025 -4.508,-4.508zm26.141,12.55l0,-0.179c-3.199,2.405 -7.114,3.635 -11.119,3.468c-4.005,0.168 -7.919,-1.063 -11.119,-3.468c-0.425,-0.515 -0.347,-1.286 0.168,-1.711c0.447,-0.369 1.085,-0.369 1.544,0c2.707,1.98 6.007,2.987 9.362,2.83c3.356,0.179 6.667,-0.783 9.407,-2.74c0.492,-0.481 1.297,-0.47 1.779,0.022c0.481,0.492 0.47,1.297 -0.022,1.778zm-0.615,-7.718c-0.078,0 -0.145,0 -0.224,0l0.034,-0.168c-2.483,0 -4.508,-2.025 -4.508,-4.508s2.025,-4.508 4.508,-4.508s4.508,2.025 4.508,4.508c0.1,2.484 -1.835,4.575 -4.318,4.676z" stroke-linecap=" butt" stroke=" none" stroke-dasharray=" none" stroke-linejoin=" miter" stroke-miterlimit="10" fill=" rgb(255,255,255)" fill-rule=" nonzero"/>
   </g>
  </g>
 </g>

</svg>