<?xml version="1.0" encoding="UTF-8" standalone="no"?>
<!DOCTYPE svg PUBLIC "-//W3C//DTD SVG 1.1//EN" "http://www.w3.org/Graphics/SVG/1.1/DTD/svg11.dtd">
<!-- Created with Vectornator (http://vectornator.io/) -->
<svg height="100%" stroke-miterlimit="10" style="fill-rule:nonzero;clip-rule:evenodd;stroke-linecap:round;stroke-linejoin:round;" version="1.1" viewBox="0 0 339.374 134.871" width="100%" xml:space="preserve" xmlns="http://www.w3.org/2000/svg" xmlns:vectornator="http://vectornator.io" xmlns:xlink="http://www.w3.org/1999/xlink">
<defs/>
<g id="Untitled" vectornator:layerName="Untitled">
<g opacity="1" vectornator:layerName="g">
<path d="M269.202 53.4335C269.202 50.2927 271.748 47.7465 274.889 47.7465C278.029 47.7465 280.576 50.2927 280.576 53.4335C280.576 56.5743 278.029 59.1205 274.889 59.1205C271.748 59.1205 269.202 56.5743 269.202 53.4335Z" fill="#ff4500" fill-rule="evenodd" opacity="1" stroke="none" vectornator:layerName="circle"/>
<path d="M193.665 77.6825C196.455 77.6825 198.064 75.5905 197.957 73.5515C197.904 72.4785 197.796 71.7805 197.689 71.2445C195.972 63.8415 189.964 58.3685 182.828 58.3685C174.352 58.3685 167.485 66.0405 167.485 75.4825C167.485 84.9245 174.352 92.5965 182.828 92.5965C188.14 92.5965 191.949 90.6655 194.685 87.6075C196.026 86.1055 195.758 83.7985 194.148 82.6715C192.807 81.7595 191.144 82.0815 189.91 83.1005C188.73 84.1205 186.477 86.1585 182.828 86.1585C178.537 86.1585 174.889 82.4565 174.084 77.5745L193.665 77.5745L193.665 77.6825ZM182.775 64.8605C186.637 64.8605 189.964 67.8645 191.198 71.9955L174.352 71.9955C175.586 67.8115 178.912 64.8605 182.775 64.8605ZM167.807 61.7485C167.807 60.1395 166.627 58.8515 165.125 58.5835C160.457 57.8865 156.058 59.6025 153.537 62.7685L153.537 62.3385C153.537 60.3535 151.927 59.1205 150.318 59.1205C148.547 59.1205 147.099 60.5685 147.099 62.3385L147.099 88.6265C147.099 90.3435 148.386 91.8455 150.103 91.9525C151.981 92.0595 153.537 90.6115 153.537 88.7335L153.537 75.1605C153.537 69.1525 158.043 64.2165 164.266 64.9145L164.91 64.9145C166.519 64.8065 167.807 63.4115 167.807 61.7485ZM278.107 65.1825C278.107 63.4115 276.659 61.9635 274.889 61.9635C273.118 61.9635 271.67 63.4115 271.67 65.1825L271.67 88.7335C271.67 90.5045 273.118 91.9525 274.889 91.9525C276.659 91.9525 278.107 90.5045 278.107 88.7335L278.107 65.1825ZM230.253 47.3715C230.253 45.6005 228.805 44.1525 227.034 44.1525C225.264 44.1525 223.816 45.6005 223.816 47.3715L223.816 61.6955C221.616 59.4955 218.88 58.4225 215.607 58.4225C207.131 58.4225 200.264 66.0945 200.264 75.5365C200.264 84.9785 207.131 92.6505 215.607 92.6505C218.88 92.6505 221.67 91.5235 223.869 89.3235C224.137 90.8265 225.479 91.9525 227.034 91.9525C228.805 91.9525 230.253 90.5045 230.253 88.7335L230.253 47.3715ZM215.661 86.2655C210.725 86.2655 206.755 81.4915 206.755 75.5365C206.755 69.6355 210.725 64.8065 215.661 64.8065C220.597 64.8065 224.567 69.5815 224.567 75.5365C224.567 81.4915 220.543 86.2655 215.661 86.2655ZM263.837 47.3715C263.837 45.6005 262.389 44.1525 260.618 44.1525C258.848 44.1525 257.399 45.6005 257.399 47.3715L257.399 61.6955C255.2 59.4955 252.464 58.4225 249.191 58.4225C240.715 58.4225 233.848 66.0945 233.848 75.5365C233.848 84.9785 240.715 92.6505 249.191 92.6505C252.464 92.6505 255.253 91.5235 257.453 89.3235C257.721 90.8265 259.062 91.9525 260.618 91.9525C262.389 91.9525 263.837 90.5045 263.837 88.7335L263.837 47.3715ZM249.191 86.2655C244.255 86.2655 240.286 81.4915 240.286 75.5365C240.286 69.6355 244.255 64.8065 249.191 64.8065C254.127 64.8065 258.097 69.5815 258.097 75.5365C258.097 81.4915 254.127 86.2655 249.191 86.2655ZM294.416 88.7875L294.416 64.8605L297.26 64.8605C298.762 64.8605 300.103 63.7335 300.21 62.1775C300.318 60.5145 298.977 59.1205 297.367 59.1205L294.416 59.1205L294.416 54.6135C294.416 52.8965 293.129 51.3945 291.412 51.2875C289.534 51.1805 287.979 52.6285 287.979 54.5065L287.979 59.1735L285.296 59.1735C283.794 59.1735 282.453 60.3005 282.346 61.8565C282.238 63.5195 283.58 64.9145 285.189 64.9145L287.925 64.9145L287.925 88.8415C287.925 90.6115 289.374 92.0595 291.144 92.0595C293.022 91.9525 294.416 90.5575 294.416 88.7875Z" fill="#222222" fill-rule="nonzero" opacity="1" stroke="none" vectornator:layerName="path"/>
</g>
<g fill="#ff4500" opacity="1" stroke="none">
<path d="M47.3527 81.3418C47.3527 79.8018 47.0594 78.5185 46.4727 77.4918C45.886 76.4652 45.1069 75.5943 44.1352 74.8793C43.1635 74.1643 42.0544 73.596 40.8077 73.1743C39.561 72.7527 38.296 72.386 37.0127 72.0743C35.7294 71.7627 34.4644 71.4877 33.2177 71.2493C31.971 71.011 30.8619 70.7177 29.8902 70.3693C28.9185 70.021 28.1394 69.5993 27.5527 69.1043C26.966 68.6093 26.6727 67.9585 26.6727 67.1518C26.6727 66.0885 27.1769 65.1993 28.1852 64.4843C29.1935 63.7693 30.816 63.4118 33.0527 63.4118C34.1894 63.4118 35.1335 63.4943 35.8852 63.6593C36.6369 63.8243 37.2785 64.0718 37.8102 64.4018C38.3419 64.7318 38.7727 65.1535 39.1027 65.6668C39.4327 66.1802 39.7444 66.7852 40.0377 67.4818C40.2577 67.9952 40.5694 68.371 40.9727 68.6093C41.376 68.8477 41.816 68.9668 42.2927 68.9668C43.0627 68.9668 43.7777 68.7193 44.4377 68.2243C45.0977 67.7293 45.4277 67.0602 45.4277 66.2168C45.4277 65.8502 45.3085 65.4285 45.0702 64.9518C44.8319 64.4752 44.5294 63.9893 44.1627 63.4943C43.796 62.9993 43.411 62.541 43.0077 62.1193C42.6044 61.6977 42.2194 61.3402 41.8527 61.0468C40.936 60.3502 39.7627 59.7818 38.3327 59.3418C36.9027 58.9018 35.1427 58.6818 33.0527 58.6818C29.3127 58.6818 26.3977 59.4885 24.3077 61.1018C22.2177 62.7152 21.1727 64.9518 21.1727 67.8118C21.1727 69.7918 21.6677 71.341 22.6577 72.4593C23.6477 73.5777 24.876 74.4393 26.3427 75.0443C27.8094 75.6493 29.4135 76.1077 31.1552 76.4193C32.8969 76.731 34.501 77.0702 35.9677 77.4368C37.4344 77.8035 38.6627 78.2985 39.6527 78.9218C40.6427 79.5452 41.1377 80.4802 41.1377 81.7268C41.1377 82.3502 41.0094 82.946 40.7527 83.5143C40.496 84.0827 40.1019 84.596 39.5702 85.0543C39.0385 85.5127 38.351 85.8793 37.5077 86.1543C36.6644 86.4293 35.656 86.5668 34.4827 86.5668C31.916 86.5668 29.9452 86.0352 28.5702 84.9718C27.1952 83.9085 26.196 82.5885 25.5727 81.0118C25.3527 80.4618 25.041 80.0585 24.6377 79.8018C24.2344 79.5452 23.8127 79.4168 23.3727 79.4168C22.676 79.4168 22.0252 79.6827 21.4202 80.2143C20.8152 80.746 20.5127 81.4335 20.5127 82.2768C20.5127 82.7902 20.751 83.5418 21.2277 84.5318C21.7044 85.5218 22.4835 86.521 23.5652 87.5293C24.6469 88.5377 26.0402 89.4177 27.7452 90.1693C29.4502 90.921 31.5494 91.2968 34.0427 91.2968C35.8027 91.2968 37.4894 91.1227 39.1027 90.7743C40.716 90.426 42.1277 89.8577 43.3377 89.0693C44.5477 88.281 45.5194 87.2543 46.2527 85.9893C46.986 84.7243 47.3527 83.1752 47.3527 81.3418Z"/>
<path d="M76.3927 76.7218C77.2727 76.7218 78.0427 76.3735 78.7027 75.6768C79.3627 74.9802 79.6927 73.9535 79.6927 72.5968C79.6927 70.3968 79.3077 68.4352 78.5377 66.7118C77.7677 64.9885 76.7135 63.531 75.3752 62.3393C74.0369 61.1477 72.4602 60.2402 70.6452 59.6168C68.8302 58.9935 66.8777 58.6818 64.7877 58.6818C62.5144 58.6818 60.461 59.1127 58.6277 59.9743C56.7944 60.836 55.2269 62.0002 53.9252 63.4668C52.6235 64.9335 51.6244 66.666 50.9277 68.6643C50.231 70.6627 49.8827 72.7802 49.8827 75.0168C49.8827 77.1802 50.2219 79.2518 50.9002 81.2318C51.5785 83.2118 52.5685 84.9443 53.8702 86.4293C55.1719 87.9143 56.776 89.0968 58.6827 89.9768C60.5894 90.8568 62.7527 91.2968 65.1727 91.2968C67.556 91.2968 69.5727 90.9668 71.2227 90.3068C72.8727 89.6468 74.2202 88.8768 75.2652 87.9968C76.3102 87.1168 77.071 86.2368 77.5477 85.3568C78.0244 84.4768 78.2627 83.8168 78.2627 83.3768C78.2627 82.6435 77.9877 82.0385 77.4377 81.5618C76.8877 81.0852 76.2827 80.8468 75.6227 80.8468C75.2194 80.8468 74.8344 80.9385 74.4677 81.1218C74.101 81.3052 73.771 81.6168 73.4777 82.0568C72.9644 82.8268 72.451 83.496 71.9377 84.0643C71.4244 84.6327 70.856 85.1002 70.2327 85.4668C69.6094 85.8335 68.8944 86.1085 68.0877 86.2918C67.281 86.4752 66.3094 86.5668 65.1727 86.5668C63.7794 86.5668 62.5969 86.3377 61.6252 85.8793C60.6535 85.421 59.8377 84.8435 59.1777 84.1468C58.5177 83.4502 57.9952 82.6893 57.6102 81.8643C57.2252 81.0393 56.9319 80.2602 56.7302 79.5268C56.5285 78.7935 56.4002 78.161 56.3452 77.6293C56.2902 77.0977 56.2627 76.7952 56.2627 76.7218L76.3927 76.7218ZM64.8977 63.4118C66.4744 63.4118 67.8494 63.6502 69.0227 64.1268C70.196 64.6035 71.1585 65.236 71.9102 66.0243C72.6619 66.8127 73.221 67.7202 73.5877 68.7468C73.9544 69.7735 74.1377 70.8552 74.1377 71.9918L56.3177 71.9918C56.3177 71.9185 56.336 71.6527 56.3727 71.1943C56.4094 70.736 56.5194 70.1952 56.7027 69.5718C56.886 68.9485 57.161 68.2702 57.5277 67.5368C57.8944 66.8035 58.3985 66.1343 59.0402 65.5293C59.6819 64.9243 60.4794 64.4202 61.4327 64.0168C62.386 63.6135 63.541 63.4118 64.8977 63.4118Z"/>
<path d="M97.0727 91.2968C99.676 91.2968 101.812 90.9302 103.48 90.1968C105.149 89.4635 106.459 88.6202 107.413 87.6668C108.366 86.7135 109.026 85.7693 109.393 84.8343C109.759 83.8993 109.943 83.2302 109.943 82.8268C109.943 82.0202 109.64 81.3877 109.035 80.9293C108.43 80.471 107.761 80.2418 107.028 80.2418C106.514 80.2418 106.038 80.3702 105.598 80.6268C105.158 80.8835 104.846 81.3235 104.663 81.9468C104.479 82.5335 104.177 83.1018 103.755 83.6518C103.334 84.2018 102.802 84.6968 102.16 85.1368C101.519 85.5768 100.767 85.9252 99.9052 86.1818C99.0435 86.4385 98.0994 86.5668 97.0727 86.5668C95.936 86.5668 94.8085 86.356 93.6902 85.9343C92.5719 85.5127 91.5635 84.8435 90.6652 83.9268C89.7669 83.0102 89.0427 81.8185 88.4927 80.3518C87.9427 78.8852 87.6677 77.1068 87.6677 75.0168C87.6677 72.9268 87.9427 71.1393 88.4927 69.6543C89.0427 68.1693 89.7669 66.9685 90.6652 66.0518C91.5635 65.1352 92.5719 64.466 93.6902 64.0443C94.8085 63.6227 95.936 63.4118 97.0727 63.4118C98.0994 63.4118 99.0435 63.5402 99.9052 63.7968C100.767 64.0535 101.519 64.4018 102.16 64.8418C102.802 65.2818 103.334 65.7768 103.755 66.3268C104.177 66.8768 104.479 67.4452 104.663 68.0318C104.846 68.6552 105.158 69.0952 105.598 69.3518C106.038 69.6085 106.514 69.7368 107.028 69.7368C107.761 69.7368 108.421 69.5077 109.008 69.0493C109.594 68.591 109.888 67.9402 109.888 67.0968C109.888 66.4368 109.631 65.6302 109.118 64.6768C108.604 63.7235 107.825 62.8068 106.78 61.9268C105.735 61.0468 104.406 60.286 102.793 59.6443C101.179 59.0027 99.2727 58.6818 97.0727 58.6818C94.9094 58.6818 92.9019 59.076 91.0502 59.8643C89.1985 60.6527 87.5944 61.7618 86.2377 63.1918C84.881 64.6218 83.8177 66.336 83.0477 68.3343C82.2777 70.3327 81.8927 72.5602 81.8927 75.0168C81.8927 77.4368 82.2777 79.646 83.0477 81.6443C83.8177 83.6427 84.881 85.3568 86.2377 86.7868C87.5944 88.2168 89.1985 89.326 91.0502 90.1143C92.9019 90.9027 94.9094 91.2968 97.0727 91.2968Z"/>
<path d="M123.748 90.9118C125.068 90.9118 126.232 90.7743 127.24 90.4993C128.249 90.2243 129.138 89.8852 129.908 89.4818C130.678 89.0785 131.329 88.6477 131.86 88.1893C132.392 87.731 132.841 87.3368 133.208 87.0068L133.208 87.9968C133.208 88.8035 133.483 89.491 134.033 90.0593C134.583 90.6277 135.261 90.9118 136.068 90.9118C136.874 90.9118 137.562 90.6277 138.13 90.0593C138.699 89.491 138.983 88.8035 138.983 87.9968L138.983 61.9818C138.983 61.1752 138.699 60.4877 138.13 59.9193C137.562 59.351 136.874 59.0668 136.068 59.0668C135.261 59.0668 134.583 59.351 134.033 59.9193C133.483 60.4877 133.208 61.1752 133.208 61.9818L133.208 77.9318C133.208 79.1052 133.024 80.196 132.658 81.2043C132.291 82.2127 131.769 83.0835 131.09 83.8168C130.412 84.5502 129.578 85.1277 128.588 85.5493C127.598 85.971 126.498 86.1818 125.288 86.1818C124.554 86.1818 123.812 86.0718 123.06 85.8518C122.309 85.6318 121.63 85.311 121.025 84.8893C120.42 84.4677 119.925 83.9452 119.54 83.3218C119.155 82.6985 118.963 81.9652 118.963 81.1218L118.963 61.9818C118.963 61.1752 118.688 60.4877 118.138 59.9193C117.588 59.351 116.909 59.0668 116.103 59.0668C115.296 59.0668 114.609 59.351 114.04 59.9193C113.472 60.4877 113.188 61.1752 113.188 61.9818L113.188 81.7818C113.188 83.2852 113.481 84.6052 114.068 85.7418C114.654 86.8785 115.443 87.8318 116.433 88.6018C117.423 89.3718 118.55 89.9493 119.815 90.3343C121.08 90.7193 122.391 90.9118 123.748 90.9118Z"/>
</g>
</g>
</svg>
